<svg width="37" height="42" viewBox="0 0 37 42" fill="none" xmlns="http://www.w3.org/2000/svg">
<path d="M29.2917 19.2461H7.70833C6.00546 19.2461 4.625 20.8128 4.625 22.7455V34.9934C4.625 36.9261 6.00546 38.4928 7.70833 38.4928H29.2917C30.9945 38.4928 32.375 36.9261 32.375 34.9934V22.7455C32.375 20.8128 30.9945 19.2461 29.2917 19.2461Z" stroke="#151921" stroke-linecap="round" stroke-linejoin="round"/>
<path d="M10.792 19.2454V12.2466C10.792 9.9263 11.6041 7.70109 13.0497 6.06042C14.4953 4.41976 16.4559 3.49805 18.5003 3.49805C20.5447 3.49805 22.5053 4.41976 23.9509 6.06042C25.3965 7.70109 26.2087 9.9263 26.2087 12.2466V19.2454" stroke="#151921" stroke-linecap="round" stroke-linejoin="round"/>
</svg>
