<svg width="42" height="38" viewBox="0 0 42 38" fill="none" xmlns="http://www.w3.org/2000/svg">
<path d="M35 32.9928V29.8507C35 28.184 34.2625 26.5856 32.9497 25.407C31.637 24.2285 29.8565 23.5664 28 23.5664H14C12.1435 23.5664 10.363 24.2285 9.05025 25.407C7.7375 26.5856 7 28.184 7 29.8507V32.9928" fill="#151921"/>
<path d="M35 32.9928V29.8507C35 28.184 34.2625 26.5856 32.9497 25.407C31.637 24.2285 29.8565 23.5664 28 23.5664H14C12.1435 23.5664 10.363 24.2285 9.05025 25.407C7.7375 26.5856 7 28.184 7 29.8507V32.9928" stroke="white" stroke-linecap="round" stroke-linejoin="round"/>
<path d="M21 17.2815C24.866 17.2815 28 14.4679 28 10.9972C28 7.52646 24.866 4.71289 21 4.71289C17.134 4.71289 14 7.52646 14 10.9972C14 14.4679 17.134 17.2815 21 17.2815Z" fill="#151921" stroke="white" stroke-linecap="round" stroke-linejoin="round"/>
</svg>
